<svg width="182" height="37" viewBox="0 0 182 37" fill="none" xmlns="http://www.w3.org/2000/svg">
<path d="M30.132 7.056L24.3 27H18.864L15.228 13.068L11.592 27H6.12L0.252 7.056H5.364L8.892 22.248L12.708 7.056H18.036L21.78 22.212L25.308 7.056H30.132ZM51.399 16.596C51.399 17.316 51.351 17.964 51.255 18.54H36.675C36.795 19.98 37.299 21.108 38.187 21.924C39.075 22.74 40.167 23.148 41.463 23.148C43.335 23.148 44.667 22.344 45.459 20.736H50.895C50.319 22.656 49.215 24.24 47.583 25.488C45.951 26.712 43.947 27.324 41.571 27.324C39.651 27.324 37.923 26.904 36.387 26.064C34.875 25.2 33.687 23.988 32.823 22.428C31.983 20.868 31.563 19.068 31.563 17.028C31.563 14.964 31.983 13.152 32.823 11.592C33.663 10.032 34.839 8.832 36.351 7.992C37.863 7.152 39.603 6.732 41.571 6.732C43.467 6.732 45.159 7.14 46.647 7.956C48.159 8.772 49.323 9.936 50.139 11.448C50.979 12.936 51.399 14.652 51.399 16.596ZM46.179 15.156C46.155 13.86 45.687 12.828 44.775 12.06C43.863 11.268 42.747 10.872 41.427 10.872C40.179 10.872 39.123 11.256 38.259 12.024C37.419 12.768 36.903 13.812 36.711 15.156H46.179ZM53.7817 16.956C53.7817 14.94 54.1777 13.152 54.9697 11.592C55.7858 10.032 56.8778 8.832 58.2458 7.992C59.6378 7.152 61.1858 6.732 62.8898 6.732C64.3778 6.732 65.6738 7.032 66.7778 7.632C67.9058 8.232 68.8058 8.988 69.4778 9.9V7.056H74.5538V27H69.4778V24.084C68.8298 25.02 67.9298 25.8 66.7778 26.424C65.6498 27.024 64.3418 27.324 62.8538 27.324C61.1738 27.324 59.6378 26.892 58.2458 26.028C56.8778 25.164 55.7858 23.952 54.9697 22.392C54.1777 20.808 53.7817 18.996 53.7817 16.956ZM69.4778 17.028C69.4778 15.804 69.2378 14.76 68.7578 13.896C68.2778 13.008 67.6298 12.336 66.8138 11.88C65.9978 11.4 65.1218 11.16 64.1858 11.16C63.2498 11.16 62.3858 11.388 61.5938 11.844C60.8018 12.3 60.1538 12.972 59.6498 13.86C59.1698 14.724 58.9298 15.756 58.9298 16.956C58.9298 18.156 59.1698 19.212 59.6498 20.124C60.1538 21.012 60.8018 21.696 61.5938 22.176C62.4098 22.656 63.2738 22.896 64.1858 22.896C65.1218 22.896 65.9978 22.668 66.8138 22.212C67.6298 21.732 68.2778 21.06 68.7578 20.196C69.2378 19.308 69.4778 18.252 69.4778 17.028ZM85.3442 11.196V20.844C85.3442 21.516 85.5002 22.008 85.8122 22.32C86.1482 22.608 86.7002 22.752 87.4682 22.752H89.8082V27H86.6402C82.3922 27 80.2682 24.936 80.2682 20.808V11.196H77.8922V7.056H80.2682V2.124H85.3442V7.056H89.8082V11.196H85.3442ZM104.665 6.768C106.177 6.768 107.521 7.104 108.697 7.776C109.873 8.424 110.785 9.396 111.433 10.692C112.105 11.964 112.441 13.5 112.441 15.3V27H107.401V15.984C107.401 14.4 107.005 13.188 106.213 12.348C105.421 11.484 104.341 11.052 102.973 11.052C101.581 11.052 100.477 11.484 99.6612 12.348C98.8692 13.188 98.4732 14.4 98.4732 15.984V27H93.4332V0.36H98.4732V9.54C99.1212 8.676 99.9852 8.004 101.065 7.524C102.145 7.02 103.345 6.768 104.665 6.768ZM135.774 16.596C135.774 17.316 135.726 17.964 135.63 18.54H121.05C121.17 19.98 121.674 21.108 122.562 21.924C123.45 22.74 124.542 23.148 125.838 23.148C127.71 23.148 129.042 22.344 129.834 20.736H135.27C134.694 22.656 133.59 24.24 131.958 25.488C130.326 26.712 128.322 27.324 125.946 27.324C124.026 27.324 122.298 26.904 120.762 26.064C119.25 25.2 118.062 23.988 117.198 22.428C116.358 20.868 115.938 19.068 115.938 17.028C115.938 14.964 116.358 13.152 117.198 11.592C118.038 10.032 119.214 8.832 120.726 7.992C122.238 7.152 123.978 6.732 125.946 6.732C127.842 6.732 129.534 7.14 131.022 7.956C132.534 8.772 133.698 9.936 134.514 11.448C135.354 12.936 135.774 14.652 135.774 16.596ZM130.554 15.156C130.53 13.86 130.062 12.828 129.15 12.06C128.238 11.268 127.122 10.872 125.802 10.872C124.554 10.872 123.498 11.256 122.634 12.024C121.794 12.768 121.278 13.812 121.086 15.156H130.554ZM144.493 10.152C145.141 9.096 145.981 8.268 147.013 7.668C148.069 7.068 149.269 6.768 150.613 6.768V12.06H149.281C147.697 12.06 146.497 12.432 145.681 13.176C144.889 13.92 144.493 15.216 144.493 17.064V27H139.453V7.056H144.493V10.152ZM173.087 7.056L160.739 36.432H155.375L159.695 26.496L151.703 7.056H157.355L162.503 20.988L167.723 7.056H173.087ZM178.036 27.252C177.124 27.252 176.368 26.976 175.768 26.424C175.192 25.848 174.904 25.14 174.904 24.3C174.904 23.46 175.192 22.764 175.768 22.212C176.368 21.636 177.124 21.348 178.036 21.348C178.924 21.348 179.656 21.636 180.232 22.212C180.808 22.764 181.096 23.46 181.096 24.3C181.096 25.14 180.808 25.848 180.232 26.424C179.656 26.976 178.924 27.252 178.036 27.252Z" fill="#31A9F5"/>
</svg>
